<svg id="Layer_1" data-name="Layer 1" xmlns="http://www.w3.org/2000/svg" xmlns:xlink="http://www.w3.org/1999/xlink" viewBox="0 0 932 900"><defs><style>.cls-1{fill:#1dbaec;}.cls-2{fill:#fbb03b;}.cls-3{fill:#ff4c00;}.cls-4{fill:#40c3fd;}.cls-5{fill:#d4dfe5;}.cls-6,.cls-7,.cls-8{fill:#fff;}.cls-7{font-size:32.2px;}.cls-7,.cls-8{font-family:Gotham-Bold, Gotham;font-weight:700;}.cls-8{font-size:32.2px;}.cls-9{fill:#f15a24;}.cls-10{fill:#061137;}.cls-11{fill:url(#linear-gradient);}.cls-12{fill:url(#linear-gradient-2);}.cls-13{fill:#20b8ea;}.cls-14{fill:url(#linear-gradient-3);}.cls-15{fill:url(#linear-gradient-4);}.cls-16{fill:url(#linear-gradient-5);}.cls-17{fill:url(#linear-gradient-6);}</style><linearGradient id="linear-gradient" x1="231.94" y1="323.73" x2="310.18" y2="323.73" gradientUnits="userSpaceOnUse"><stop offset="0" stop-color="#f15a24"/><stop offset="0.12" stop-color="#ed5823"/><stop offset="0.25" stop-color="#e05422"/><stop offset="0.38" stop-color="#cc4c1e"/><stop offset="0.52" stop-color="#ae411a"/><stop offset="0.65" stop-color="#893314"/><stop offset="0.78" stop-color="#5b220e"/><stop offset="0.92" stop-color="#260e06"/><stop offset="1"/></linearGradient><linearGradient id="linear-gradient-2" x1="375.66" y1="451.78" x2="476.2" y2="451.78" xlink:href="#linear-gradient"/><linearGradient id="linear-gradient-3" x1="-1697.01" y1="-3214" x2="-1596.47" y2="-3214" gradientTransform="translate(-1147.43 -2638.65) rotate(180)" gradientUnits="userSpaceOnUse"><stop offset="0" stop-color="#3fa9f5"/><stop offset="0.12" stop-color="#3ea6f1"/><stop offset="0.25" stop-color="#3b9ee4"/><stop offset="0.38" stop-color="#358fd0"/><stop offset="0.51" stop-color="#2e7bb2"/><stop offset="0.64" stop-color="#24618d"/><stop offset="0.78" stop-color="#18415f"/><stop offset="0.91" stop-color="#0b1d2a"/><stop offset="1"/></linearGradient><linearGradient id="linear-gradient-4" x1="-1851.04" y1="-3010.02" x2="-1775.94" y2="-3010.02" xlink:href="#linear-gradient-3"/><linearGradient id="linear-gradient-5" x1="1463.42" y1="714.78" x2="1516.78" y2="714.78" gradientTransform="translate(113.9 -964.06) rotate(45)" xlink:href="#linear-gradient"/><linearGradient id="linear-gradient-6" x1="-2703.14" y1="-3419" x2="-2649.79" y2="-3419" gradientTransform="translate(1168.35 -3641.22) rotate(-135)" xlink:href="#linear-gradient-3"/></defs><path class="cls-1" d="M444.81,92.16v376h-376C77.83,264.64,241.24,101.2,444.81,92.16Z"/><path class="cls-2" d="M856.45,468.19h-376v-376C684,101.2,847.41,264.61,856.45,468.19Z"/><path class="cls-3" d="M444.81,503.8v376c-203.57-9-367-172.43-376-376Z"/><path class="cls-4" d="M856.45,503.8c-9,203.57-172.48,367-376,376v-376Z"/><path class="cls-5" d="M444.81,158.44V468.19H135.06C144,301.18,277.78,167.37,444.81,158.44Z"/><path class="cls-5" d="M790.17,468.19H480.42V158.44C647.42,167.34,781.26,301.18,790.17,468.19Z"/><path class="cls-5" d="M135.06,503.8H444.81V813.55C277.81,804.61,144,670.77,135.06,503.8Z"/><path class="cls-5" d="M790.17,503.8c-8.93,167-142.75,300.84-309.75,309.75V503.8Z"/><circle class="cls-6" cx="462.62" cy="485.99" r="142.96"/><text class="cls-7" transform="translate(591.52 834.39) rotate(-21.32)">O</text><text class="cls-7" transform="translate(617.98 823.98) rotate(-25.78)">N</text><text class="cls-7" transform="translate(641.72 812.4) rotate(-29.74)">E</text><text class="cls-7" transform="translate(660.9 801.27) rotate(-32.36)"> </text><text class="cls-7" transform="translate(669.74 795.88) rotate(-35.28)">D</text><text class="cls-7" transform="translate(691.16 780.73) rotate(-39.67)">O</text><text class="cls-7" transform="matrix(0.72, -0.69, 0.69, 0.72, 712.95, 762.52)">C</text><text class="cls-7" transform="translate(730.64 745.36) rotate(-47.66)">T</text><text class="cls-7" transform="matrix(0.62, -0.78, 0.78, 0.62, 744.77, 730.02)">O</text><text class="cls-7" transform="translate(762.33 707.75) rotate(-55.76)">R</text><text class="cls-8" transform="translate(124.43 628.81) rotate(67.09)">O</text><text class="cls-8" transform="translate(135.58 654.98) rotate(62.63)">N</text><text class="cls-8" transform="matrix(0.52, 0.85, -0.85, 0.52, 147.78, 678.34)">E</text><text class="cls-8" transform="matrix(0.56, 0.83, -0.83, 0.56, 159.46, 697.23)"> </text><text class="cls-8" transform="matrix(0.6, 0.8, -0.8, 0.6, 165.1, 705.89)">C</text><text class="cls-8" transform="translate(179.5 725.25) rotate(49.07)">O</text><text class="cls-8" transform="matrix(0.71, 0.7, -0.7, 0.71, 198.17, 746.66)">N</text><text class="cls-8" transform="translate(217.02 765.23) rotate(40.42)">N</text><text class="cls-8" transform="matrix(0.8, 0.59, -0.59, 0.8, 237.18, 782.27)">E</text><text class="cls-8" transform="translate(255.24 795.63) rotate(32.71)">C</text><text class="cls-8" transform="translate(276.02 808.89) rotate(28.97)">T</text><text class="cls-7" transform="matrix(0.77, 0.64, -0.64, 0.77, 677.96, 203.5)">O</text><text class="cls-7" transform="translate(698.76 220.71) rotate(43.74)">N</text><text class="cls-7" transform="translate(716.86 238.1) rotate(47.45)">E</text><text class="cls-7" transform="translate(731.19 253.89) rotate(49.92)"> </text><text class="cls-7" transform="translate(737.36 261.06) rotate(52.26)">L</text><text class="cls-7" transform="translate(749.44 276.49) rotate(55.86)">A</text><text class="cls-7" transform="matrix(0.5, 0.86, -0.86, 0.5, 763.49, 297.26)">B</text><text class="cls-7" transform="translate(156.36 305.98) rotate(-57.29)">O</text><text class="cls-7" transform="matrix(0.6, -0.8, 0.8, 0.6, 170.95, 283.29)">N</text><text class="cls-7" transform="translate(186.05 263.27) rotate(-49.39)">E</text><text class="cls-7" transform="translate(200.05 247.13) rotate(-46.92)"> </text><text class="cls-7" transform="translate(206.35 240.16) rotate(-44.32)">R</text><text class="cls-7" transform="matrix(0.76, -0.65, 0.65, 0.76, 222.78, 224.13)">E</text><text class="cls-7" transform="matrix(0.8, -0.6, 0.6, 0.8, 238.85, 210.22)">C</text><text class="cls-7" transform="matrix(0.84, -0.55, 0.55, 0.84, 256.93, 196.38)">O</text><text class="cls-7" transform="translate(279.55 181.63) rotate(-29.2)">R</text><text class="cls-7" transform="matrix(0.9, -0.43, 0.43, 0.9, 299.52, 170.42)">D</text><path class="cls-9" d="M308.56,322.21a14.68,14.68,0,0,1-7,1.52A16.6,16.6,0,0,0,308.56,322.21Z"/><path class="cls-9" d="M361,339.92q-15.71,16.32-31.89,32.18c-5.25-5.09-10.36-10-15-14.42-8.3-7.88-21.89-7.54-30.09.34q-7,6.72-13.88,13.49c-11.08-10.78-22.83-22.41-32.31-32.07.18.12,5.26,4.53,5.45,4.64s.39.25.6.37a47.37,47.37,0,0,0,14.49,3c21.67,1,37.87-15,51.83-26.14-.5.3-1,.56-1.5.8a52.07,52.07,0,0,0,7.57-5.2c4-3.1,7.13-7.32,10.94-10.71a23.64,23.64,0,0,1,32.82.89C369.09,316.18,369.92,330.62,361,339.92Z"/><path class="cls-10" d="M300.09,257a24.51,24.51,0,0,1,24.09,24.29c0,13.43-11.25,24.72-24.47,24.54a24.42,24.42,0,0,1,.38-48.83Z"/><path class="cls-11" d="M310.18,321.35c-14,11.16-30.16,27.1-51.83,26.14a45.37,45.37,0,0,1-8-1.08,37.25,37.25,0,0,1-5.4-1.47,17.36,17.36,0,0,1-4.76-3.06A23.82,23.82,0,0,1,255.38,300c5.93-.46,11.6,1.56,16.77,5.87,3.75,3.12,7,6.81,10.53,10.22,5.55,4.06,12.08,7.53,18.52,7.65A16.63,16.63,0,0,0,310.18,321.35Z"/><path class="cls-10" d="M329.09,372.1q-6.91,6.78-13.88,13.48c-8.2,7.88-21.79,8.23-30.08.34-4.65-4.41-9.75-9.32-15-14.41Q277,364.73,284,358c8.2-7.88,21.79-8.22,30.09-.34C318.73,362.1,323.84,367,329.09,372.1Z"/><path class="cls-9" d="M474.13,449.82a18.78,18.78,0,0,1-9,2A21.25,21.25,0,0,0,474.13,449.82Z"/><path class="cls-9" d="M541.49,472.58q-20.19,21-41,41.37c-6.74-6.56-13.3-12.86-19.27-18.53-10.67-10.14-28.13-9.69-38.67.43q-9,8.63-17.83,17.33c-14.25-13.84-29.35-28.8-41.53-41.21.23.15,6.76,5.82,7,6a8.3,8.3,0,0,0,.77.47,60.66,60.66,0,0,0,18.63,3.91c27.85,1.24,48.67-19.25,66.6-33.59a19.7,19.7,0,0,1-1.92,1c3-1.5,5.94-3.78,9.72-6.68,5.2-4,9.17-9.4,14.06-13.76a30.4,30.4,0,0,1,42.19,1.15C551.91,442.08,553,460.63,541.49,472.58Z"/><path class="cls-10" d="M463.23,366a31.5,31.5,0,0,1,31,31.21c0,17.27-14.46,31.78-31.45,31.54s-31-14.47-31-31.29A31.57,31.57,0,0,1,463.23,366Z"/><path class="cls-12" d="M476.2,448.72c-17.93,14.34-38.75,34.83-66.6,33.59a56.84,56.84,0,0,1-10.22-1.39,46.62,46.62,0,0,1-6.94-1.88,21.83,21.83,0,0,1-6.11-3.94,30.61,30.61,0,0,1,19.45-53.83c7.62-.59,14.9,2,21.56,7.55,4.81,4,9,8.74,13.52,13.13,7.14,5.22,15.52,9.68,23.8,9.83A21.33,21.33,0,0,0,476.2,448.72Z"/><path class="cls-10" d="M500.5,514q-8.87,8.7-17.83,17.32c-10.53,10.13-28,10.57-38.66.44-6-5.67-12.53-12-19.28-18.53q8.88-8.71,17.83-17.33c10.54-10.12,28-10.57,38.67-.43C487.2,501.09,493.76,507.39,500.5,514Z"/><path class="cls-13" d="M451.11,577.3a18.76,18.76,0,0,1,9-2A21.37,21.37,0,0,0,451.11,577.3Z"/><path class="cls-13" d="M542,555.15c-.23-.15-6.77-5.81-7-6l-.77-.47a60.75,60.75,0,0,0-18.63-3.9C487.79,543.58,467,564.06,449,578.41a20,20,0,0,1,1.92-1c-3,1.51-5.93,3.79-9.72,6.68-5.2,4-9.17,9.4-14.06,13.77A30.38,30.38,0,0,1,385,596.67c-11.67-11.63-12.74-30.18-1.24-42.13q20.17-21,41-41.36C431.48,519.73,438,526,444,531.71c10.66,10.13,28.13,9.69,38.66-.44q9-8.61,17.83-17.32C514.76,527.79,529.85,542.74,542,555.15Z"/><path class="cls-14" d="M449,578.41c17.94-14.35,38.76-34.83,66.61-33.59a57.5,57.5,0,0,1,10.21,1.38,47.56,47.56,0,0,1,6.94,1.89,21.73,21.73,0,0,1,6.12,3.94,30.62,30.62,0,0,1-19.45,53.83c-7.62.58-14.91-2-21.56-7.55-4.81-4-9-8.75-13.52-13.13-7.14-5.22-15.53-9.68-23.81-9.83A21.26,21.26,0,0,0,449,578.41Z"/><path class="cls-10" d="M638.84,253.26A23.53,23.53,0,0,1,662,276.57c0,12.9-10.8,23.74-23.49,23.56a23.44,23.44,0,0,1,.36-46.87Z"/><path class="cls-10" d="M667,325.5q-6.63,6.51-13.32,12.94c-7.87,7.57-20.91,7.9-28.88.33-4.46-4.24-9.36-8.95-14.4-13.84Q617,318.42,623.67,312c7.87-7.57,20.91-7.9,28.88-.33C657,315.9,661.91,320.61,667,325.5Z"/><path class="cls-13" d="M698,356.28c-.18-.11-5.06-4.34-5.23-4.45s-.38-.24-.58-.35a45.31,45.31,0,0,0-13.92-2.92c-20.8-.92-36.35,14.38-49.75,25.09.48-.28,1-.54,1.44-.76a47.4,47.4,0,0,0-7.26,5c-3.89,3-6.85,7-10.5,10.28a22.7,22.7,0,0,1-31.51-.86c-8.72-8.69-9.52-22.55-.93-31.47q15.07-15.68,30.61-30.9c5,4.89,9.94,9.6,14.4,13.84,8,7.57,21,7.24,28.88-.33Q660.32,332,667,325.5C677.6,335.84,688.87,347,698,356.28Z"/><path class="cls-15" d="M628.5,373.65c13.4-10.71,29-26,49.75-25.09a43.74,43.74,0,0,1,7.64,1,35.8,35.8,0,0,1,5.18,1.4,16.64,16.64,0,0,1,4.57,2.95,22.87,22.87,0,0,1-14.53,40.21c-5.69.43-11.13-1.5-16.11-5.64-3.59-3-6.73-6.53-10.1-9.81-5.33-3.9-11.59-7.23-17.78-7.34A15.85,15.85,0,0,0,628.5,373.65Z"/><path class="cls-9" d="M697.69,646.19q-15.44.3-30.9.15c-.07-5-.16-9.82-.27-14.19a15.08,15.08,0,0,0-14.68-14.34q-6.6-.13-13.19-.19c-.15-10.55-.21-21.82-.12-31,0,.14.36,4.72.39,4.86s.07.31.11.47a32.1,32.1,0,0,0,5.53,8.46c10,10.91,25.48,11,37.59,12.38-.38-.09-.75-.21-1.1-.33a35.42,35.42,0,0,0,6.15,1.14c3.45.45,7-.09,10.44.11A16.13,16.13,0,0,1,713,629.92C713.05,638.66,706.49,646,697.69,646.19Z"/><path class="cls-16" d="M682.15,612.74c-12.11-1.34-27.61-1.47-37.59-12.38a30.58,30.58,0,0,1-3.32-4.36,24.44,24.44,0,0,1-1.89-3.31,11.58,11.58,0,0,1-.82-3.77A16.24,16.24,0,0,1,666,576a15.71,15.71,0,0,1,5.26,10.92c.3,3.31.11,6.66.15,10,.72,4.64,2.19,9.46,5.24,12.62A11.28,11.28,0,0,0,682.15,612.74Z"/><path class="cls-10" d="M666.79,646.34q-6.59-.06-13.19-.19a15.08,15.08,0,0,1-14.67-14.35c-.11-4.37-.2-9.19-.28-14.18q6.6.06,13.19.19a15.08,15.08,0,0,1,14.68,14.34C666.63,636.52,666.72,641.35,666.79,646.34Z"/><path class="cls-13" d="M624.49,651.57a10,10,0,0,1,4.13,2.66A11.48,11.48,0,0,0,624.49,651.57Z"/><path class="cls-13" d="M666.92,677.38c0-.14-.36-4.72-.39-4.86a4.64,4.64,0,0,0-.12-.47,31.86,31.86,0,0,0-5.52-8.45c-10-10.92-25.48-11-37.59-12.39.38.09.75.21,1.1.33a34.72,34.72,0,0,0-6.16-1.13c-3.44-.46-7,.08-10.43-.11A16.14,16.14,0,0,1,592.41,634c0-8.74,6.55-16.1,15.34-16.27q15.45-.3,30.9-.14c.08,5,.17,9.81.28,14.18a15.08,15.08,0,0,0,14.67,14.35q6.6.12,13.19.19C667,656.88,667,668.15,666.92,677.38Z"/><path class="cls-17" d="M623.29,651.21c12.12,1.35,27.61,1.47,37.6,12.39A30.42,30.42,0,0,1,664.2,668a24.5,24.5,0,0,1,1.9,3.31,11.63,11.63,0,0,1,.82,3.77,16.21,16.21,0,0,1-4.71,12.72,16.25,16.25,0,0,1-22.79.18A15.71,15.71,0,0,1,634.16,677c-.3-3.31-.1-6.66-.15-10-.71-4.64-2.19-9.46-5.24-12.62A11.31,11.31,0,0,0,623.29,651.21Z"/><circle class="cls-3" cx="300.48" cy="593.32" r="22.58"/><circle class="cls-1" cx="300.48" cy="708.72" r="22.58"/><circle class="cls-10" cx="353.97" cy="654.56" r="22.58"/><circle class="cls-10" cx="238.82" cy="654.56" r="22.58"/></svg>