<svg id="Layer_1" data-name="Layer 1" xmlns="http://www.w3.org/2000/svg" xmlns:xlink="http://www.w3.org/1999/xlink" viewBox="0 0 1438 803"><defs><style>.cls-1{fill:#f15a24;}.cls-2{fill:#061137;}.cls-3{fill:url(#linear-gradient);}.cls-4{fill:#20b8ea;}.cls-5{fill:url(#linear-gradient-2);}</style><linearGradient id="linear-gradient" x1="69.92" y1="319.12" x2="312.07" y2="319.12" gradientUnits="userSpaceOnUse"><stop offset="0" stop-color="#f15a24"/><stop offset="0.12" stop-color="#ed5823"/><stop offset="0.25" stop-color="#e05422"/><stop offset="0.38" stop-color="#cc4c1e"/><stop offset="0.52" stop-color="#ae411a"/><stop offset="0.65" stop-color="#893314"/><stop offset="0.78" stop-color="#5b220e"/><stop offset="0.92" stop-color="#260e06"/><stop offset="1"/></linearGradient><linearGradient id="linear-gradient-2" x1="967.78" y1="716.6" x2="1209.93" y2="716.6" gradientTransform="translate(1456.57 1333.35) rotate(180)" gradientUnits="userSpaceOnUse"><stop offset="0" stop-color="#3fa9f5"/><stop offset="0.12" stop-color="#3ea6f1"/><stop offset="0.25" stop-color="#3b9ee4"/><stop offset="0.38" stop-color="#358fd0"/><stop offset="0.51" stop-color="#2e7bb2"/><stop offset="0.64" stop-color="#24618d"/><stop offset="0.78" stop-color="#18415f"/><stop offset="0.91" stop-color="#0b1d2a"/><stop offset="1"/></linearGradient></defs><path class="cls-1" d="M307.07,314.42a45.29,45.29,0,0,1-21.77,4.72A51.24,51.24,0,0,0,307.07,314.42Z"/><path class="cls-1" d="M469.31,369.23q-48.6,50.52-98.71,99.63c-16.25-15.78-32-31-46.42-44.63-25.69-24.4-67.75-23.34-93.13,1Q209.46,446,188.1,467c-34.32-33.34-70.68-69.35-100-99.25.55.36,16.3,14,16.86,14.36s1.22.78,1.86,1.13a145.89,145.89,0,0,0,44.87,9.41c67.07,3,117.22-46.35,160.41-80.9a51.72,51.72,0,0,1-4.62,2.47c7.24-3.63,14.3-9.12,23.41-16.1C343.38,288.54,353,275.5,364.72,265c29.83-26.66,73.48-25.24,101.6,2.78S497,340.46,469.31,369.23Z"/><path class="cls-2" d="M280.84,112.58c40.73.31,74.55,34.4,74.58,75.17,0,41.59-34.83,76.54-75.76,76C239,263.14,205,228.86,205,188.34,205,146.65,239.44,112.27,280.84,112.58Z"/><path class="cls-3" d="M312.07,311.76c-43.19,34.55-93.34,83.88-160.41,80.9a139.78,139.78,0,0,1-24.61-3.33c-5.5-1.25-11.34-2.42-16.71-4.54a52.84,52.84,0,0,1-14.73-9.49,73.73,73.73,0,0,1,46.84-129.65c18.36-1.41,35.9,4.83,51.93,18.18C206,273.49,216.1,284.89,227,295.45c17.19,12.58,37.39,23.32,57.33,23.68A51.28,51.28,0,0,0,312.07,311.76Z"/><path class="cls-2" d="M370.6,468.86q-21.36,21-42.94,41.73C302.28,535,260.22,536,234.53,511.64,220.15,498,204.36,482.79,188.1,467q21.38-21,43-41.73c25.38-24.39,67.44-25.45,93.13-1C338.56,437.89,354.35,453.08,370.6,468.86Z"/><path class="cls-4" d="M251.64,621.45a45.29,45.29,0,0,1,21.77-4.72A51.24,51.24,0,0,0,251.64,621.45Z"/><path class="cls-4" d="M470.64,568.11c-.55-.36-16.3-14-16.86-14.36s-1.22-.78-1.86-1.13a145.89,145.89,0,0,0-44.87-9.41c-67.07-3-117.22,46.35-160.41,80.9a51.72,51.72,0,0,1,4.62-2.47c-7.24,3.63-14.3,9.12-23.41,16.1-12.52,9.6-22.09,22.63-33.86,33.15-29.83,26.66-73.48,25.24-101.6-2.78s-30.68-72.7-3-101.47Q138,516.12,188.1,467c16.26,15.78,32.05,31,46.43,44.63,25.69,24.4,67.75,23.34,93.13-1.05q21.58-20.74,42.94-41.73C404.93,502.2,441.29,538.21,470.64,568.11Z"/><path class="cls-5" d="M246.64,624.11c43.19-34.55,93.34-83.88,160.41-80.9a138.87,138.87,0,0,1,24.61,3.34c5.5,1.24,11.34,2.42,16.71,4.53a52.84,52.84,0,0,1,14.73,9.49,73.73,73.73,0,0,1-46.84,129.65c-18.36,1.41-35.9-4.83-51.93-18.18-11.59-9.66-21.72-21.06-32.57-31.62-17.19-12.58-37.39-23.32-57.33-23.68A51.28,51.28,0,0,0,246.64,624.11Z"/><path class="cls-2" d="M530.35,536.63h32.42v58.31h59.77V536.63H655V684H622.54V624.83H562.77V684H530.35Z"/><path class="cls-2" d="M690.32,536.63H801.46v28.84H722.52v29.89H792V624.2H722.52v30.94h80V684H690.32Z"/><path class="cls-2" d="M881.86,535.58h29.89L974.9,684H941l-13.47-33.05H865.23L851.76,684h-33ZM916,622.3l-19.58-47.78L876.81,622.3Z"/><path class="cls-2" d="M997.63,536.63H1030V654.51h73.46V684H997.63Z"/><path class="cls-2" d="M1141.39,566.52h-44.84V536.63h122.09v29.89H1173.8V684h-32.41Z"/><path class="cls-2" d="M1243.47,536.63h32.41v58.31h59.78V536.63h32.42V684h-32.42V624.83h-59.78V684h-32.41Z"/><path class="cls-2" d="M515.55,372.78V372c0-75.69,59.71-137.68,141.87-137.68s141.1,61.23,141.1,136.92V372c0,75.69-59.71,137.68-141.86,137.68S515.55,448.47,515.55,372.78Zm221.73,0V372c0-45.64-33.46-83.67-80.62-83.67s-79.88,37.27-79.88,82.91V372c0,45.64,33.47,83.67,80.64,83.67S737.28,418.42,737.28,372.78Z"/><path class="cls-2" d="M850.62,238.9h54l124.75,163.93V238.9h57.81V505.14h-49.82L908.42,335.89V505.14h-57.8Z"/><path class="cls-2" d="M1151.07,238.9h200.82V291H1209.26v54h125.52v52.1H1209.26V453h144.53v52.11H1151.07Z"/></svg>