<svg id="Layer_1" data-name="Layer 1" xmlns="http://www.w3.org/2000/svg" xmlns:xlink="http://www.w3.org/1999/xlink" viewBox="0 0 535 562"><defs><style>.cls-1{fill:#061137;}.cls-2{fill:#20b8ea;}.cls-3{fill:url(#linear-gradient);}</style><linearGradient id="linear-gradient" x1="-2851.47" y1="-1357.09" x2="-2609.32" y2="-1357.09" gradientTransform="translate(-2359.43 -932.65) rotate(180)" gradientUnits="userSpaceOnUse"><stop offset="0" stop-color="#3fa9f5"/><stop offset="0.12" stop-color="#3ea6f1"/><stop offset="0.25" stop-color="#3b9ee4"/><stop offset="0.38" stop-color="#358fd0"/><stop offset="0.51" stop-color="#2e7bb2"/><stop offset="0.64" stop-color="#24618d"/><stop offset="0.78" stop-color="#18415f"/><stop offset="0.91" stop-color="#0b1d2a"/><stop offset="1"/></linearGradient></defs><path class="cls-1" d="M283.22,43.61c40.73.31,74.55,34.4,74.58,75.17,0,41.58-34.84,76.54-75.76,76-40.71-.57-74.65-34.85-74.64-75.37C207.41,77.68,241.82,43.3,283.22,43.61Z"/><path class="cls-1" d="M373.85,276.56q-21.36,21-42.94,41.73c-25.38,24.39-67.44,25.45-93.13,1-14.38-13.66-30.17-28.85-46.43-44.63q21.38-21,43-41.73c25.38-24.39,67.44-25.45,93.13-1C341.81,245.59,357.6,260.78,373.85,276.56Z"/><path class="cls-2" d="M473.89,375.81c-.55-.36-16.3-14-16.86-14.36s-1.22-.78-1.86-1.13a145.89,145.89,0,0,0-44.87-9.41c-67.07-3-117.22,46.35-160.41,80.9a51.72,51.72,0,0,1,4.62-2.47c-7.24,3.63-14.3,9.12-23.41,16.1-12.52,9.6-22.09,22.63-33.86,33.15-29.83,26.66-73.48,25.24-101.6-2.78s-30.68-72.7-3-101.47q48.6-50.52,98.7-99.63c16.26,15.78,32.05,31,46.43,44.63,25.69,24.4,67.75,23.34,93.13-1q21.58-20.75,42.94-41.73C408.18,309.9,444.54,345.91,473.89,375.81Z"/><path class="cls-3" d="M249.89,431.81c43.19-34.55,93.34-83.88,160.41-80.9a139.91,139.91,0,0,1,24.61,3.33c5.5,1.25,11.34,2.42,16.71,4.54a52.84,52.84,0,0,1,14.73,9.49,73.73,73.73,0,0,1-46.84,129.65c-18.36,1.41-35.9-4.83-51.93-18.18C356,470.08,345.86,458.68,335,448.12c-17.19-12.58-37.39-23.32-57.33-23.68A51.28,51.28,0,0,0,249.89,431.81Z"/></svg>