<svg id="Layer_1" data-name="Layer 1" xmlns="http://www.w3.org/2000/svg" xmlns:xlink="http://www.w3.org/1999/xlink" viewBox="0 0 487 518"><defs><style>.cls-1{fill:#f15a24;}.cls-2{fill:url(#linear-gradient);}.cls-3{fill:#061137;}.cls-4{fill:#20b8ea;}.cls-5{fill:url(#linear-gradient-2);}</style><linearGradient id="linear-gradient" x1="516.72" y1="1588.87" x2="692.26" y2="1588.87" gradientTransform="translate(969.77 -1412.29) rotate(45)" gradientUnits="userSpaceOnUse"><stop offset="0" stop-color="#f15a24"/><stop offset="0.12" stop-color="#ed5823"/><stop offset="0.25" stop-color="#e05422"/><stop offset="0.38" stop-color="#cc4c1e"/><stop offset="0.52" stop-color="#ae411a"/><stop offset="0.65" stop-color="#893314"/><stop offset="0.78" stop-color="#5b220e"/><stop offset="0.92" stop-color="#260e06"/><stop offset="1"/></linearGradient><linearGradient id="linear-gradient-2" x1="-29.79" y1="-2825.28" x2="145.75" y2="-2825.28" gradientTransform="translate(2250.49 -1574.98) rotate(-135)" gradientUnits="userSpaceOnUse"><stop offset="0" stop-color="#3fa9f5"/><stop offset="0.12" stop-color="#3ea6f1"/><stop offset="0.25" stop-color="#3b9ee4"/><stop offset="0.38" stop-color="#358fd0"/><stop offset="0.51" stop-color="#2e7bb2"/><stop offset="0.64" stop-color="#24618d"/><stop offset="0.78" stop-color="#18415f"/><stop offset="0.91" stop-color="#0b1d2a"/><stop offset="1"/></linearGradient></defs><path class="cls-1" d="M390.68,307q-50.81,1-101.67.47c-.24-16.42-.55-32.3-.92-46.68-.66-25.67-22.76-46.69-48.27-47.2q-21.7-.42-43.41-.62c-.5-34.68-.68-71.78-.4-102.15.1.47,1.17,15.54,1.28,16s.23,1,.37,1.53a105.9,105.9,0,0,0,18.18,27.83c32.85,35.91,83.85,36.33,123.7,40.76-1.26-.32-2.47-.69-3.64-1.11,5.57,1.85,12,2.66,20.25,3.75,11.34,1.5,22.93-.28,34.35.36,29,1.63,50.61,24.73,50.66,53.51S419.62,306.44,390.68,307Z"/><path class="cls-2" d="M339.54,196.94c-39.85-4.43-90.85-4.85-123.7-40.76a101.73,101.73,0,0,1-10.91-14.32A82.85,82.85,0,0,1,198.7,131,38,38,0,0,1,196,118.55,53.45,53.45,0,0,1,286.48,76.1C296.61,84.79,302.4,97,303.78,112c1,10.89.34,21.93.48,32.9,2.37,15.26,7.22,31.12,17.25,41.53A37.26,37.26,0,0,0,339.54,196.94Z"/><path class="cls-3" d="M289,307.47q-21.7-.2-43.4-.62c-25.51-.51-47.62-21.53-48.28-47.2-.37-14.38-.68-30.26-.92-46.68q21.71.19,43.41.62c25.51.51,47.61,21.53,48.27,47.2C288.46,275.17,288.77,291.05,289,307.47Z"/><path class="cls-4" d="M149.81,324.71a32.73,32.73,0,0,1,13.58,8.74A37,37,0,0,0,149.81,324.71Z"/><path class="cls-4" d="M289.41,409.62c-.09-.46-1.17-15.53-1.28-16s-.22-1-.37-1.53a105.9,105.9,0,0,0-18.18-27.83c-32.85-35.91-83.84-36.33-123.69-40.75a37.35,37.35,0,0,1,3.63,1.1c-5.57-1.85-12-2.66-20.25-3.75-11.34-1.5-22.92.28-34.35-.36-29-1.63-50.6-24.73-50.66-53.51s21.54-53,50.49-53.54q50.81-1,101.66-.48c.24,16.42.55,32.3.92,46.68.66,25.67,22.77,46.69,48.28,47.2q21.69.42,43.4.62C289.52,342.15,289.7,379.25,289.41,409.62Z"/><path class="cls-5" d="M145.88,323.51c39.85,4.43,90.85,4.85,123.7,40.75a101.25,101.25,0,0,1,10.91,14.33,82.09,82.09,0,0,1,6.23,10.89,38,38,0,0,1,2.69,12.42,53.44,53.44,0,0,1-90.47,42.44c-10.13-8.69-15.92-20.88-17.3-35.94-1-10.89-.34-21.93-.48-32.9-2.37-15.26-7.22-31.12-17.25-41.53A37.12,37.12,0,0,0,145.88,323.51Z"/></svg>